{"accessors" : [{"bufferView" : 0, "byteOffset" : 0, "componentType" : 5123, "count" : 3384, "type" : "SCALAR", "max" : [2817], "min" : [0]}, {"bufferView" : 1, "byteOffset" : 0, "componentType" : 5126, "count" : 2818, "type" : "VEC3", "max" : [1.999999761581421, 1.000000238418579, 1.000000238418579], "min" : [-2, -1.000000238418579, -1.000000238418579], "name" : "POSITION"}, {"bufferView" : 1, "byteOffset" : 12, "componentType" : 5126, "count" : 2818, "type" : "VEC3", "max" : [1.4945450175218866E-06, 1.0000044107437134, 1.0000044107437134], "min" : [-1.3194567145546898E-06, -1.0000044107437134, -1.0000044107437134], "name" : "NORMAL"}, {"bufferView" : 1, "byteOffset" : 24, "componentType" : 5126, "count" : 2818, "type" : "VEC2", "max" : [1, 1], "min" : [0, 0], "name" : "TEXCOORD_0"}], "asset" : {"generator" : "Aspose.3D 22.7", "version" : "2.0"}, "buffers" : [{"uri" : "data:application/octet-stream;base64,", "byteLength" : 115064}], "bufferViews" : [{"buffer" : 0, "byteOffset" : 0, "byteLength" : 6768, "target" : 34963}, {"buffer" : 0, "byteOffset" : 6772, "byteLength" : 108288, "byteStride" : 32, "target" : 34962}], "meshes" : [{"primitives" : [{"attributes" : {"POSITION" : 1, "NORMAL" : 2, "TEXCOORD_0" : 3}, "indices" : 0, "mode" : 4}]}], "nodes" : [{"mesh" : 0, "name" : "NurbsPath"}], "scene" : 0, "scenes" : [{"nodes" : [0]}]}